<?xml version="1.0" standalone="no"?>
<!DOCTYPE svg PUBLIC "-//W3C//DTD SVG 20010904//EN"
 "http://www.w3.org/TR/2001/REC-SVG-20010904/DTD/svg10.dtd">
<svg version="1.0" xmlns="http://www.w3.org/2000/svg"
 width="703.000000pt" height="703.000000pt" viewBox="0 0 703.000000 703.000000"
 preserveAspectRatio="xMidYMid meet">
<metadata>
Created by potrace 1.14, written by Peter Selinger 2001-2017
</metadata>
<g transform="translate(0.000000,703.000000) scale(0.100000,-0.100000)"
fill="#000000" stroke="none">
<path d="M3329 7016 c-2 -2 -47 -6 -99 -10 -101 -7 -137 -11 -185 -20 -199
-38 -339 -71 -450 -106 -187 -60 -296 -99 -313 -112 -8 -7 -17 -12 -18 -11 -7
5 -223 -91 -264 -117 -8 -5 -30 -16 -47 -24 -18 -8 -53 -29 -77 -45 -25 -17
-47 -31 -51 -31 -3 0 -39 -22 -80 -50 -41 -27 -78 -50 -84 -50 -5 0 -11 -3
-13 -7 -1 -5 -36 -30 -75 -57 -40 -27 -73 -53 -73 -58 0 -4 -7 -8 -15 -8 -8 0
-15 -5 -15 -12 0 -6 -3 -9 -6 -5 -3 3 -16 -5 -29 -19 -12 -13 -26 -24 -31 -24
-5 0 -29 -18 -52 -40 -24 -22 -48 -40 -53 -40 -6 0 -7 -4 -4 -10 3 -5 1 -10
-5 -10 -6 0 -63 -51 -126 -114 -63 -62 -114 -111 -114 -108 0 2 -10 -8 -22
-24 -13 -16 -33 -40 -45 -54 -13 -14 -23 -28 -23 -33 0 -4 -5 -5 -10 -2 -6 3
-10 2 -10 -3 0 -11 -96 -133 -113 -144 -7 -4 -8 -8 -3 -8 5 0 -3 -12 -18 -26
-14 -15 -26 -30 -26 -34 0 -4 -9 -18 -20 -31 -12 -12 -30 -38 -41 -56 -11 -18
-25 -33 -30 -33 -6 0 -8 -4 -5 -8 3 -5 -5 -20 -17 -33 -12 -13 -22 -26 -21
-29 2 -7 -28 -53 -40 -61 -5 -4 -5 -12 -2 -18 4 -6 1 -11 -7 -11 -8 0 -17 -8
-21 -17 -8 -24 -71 -140 -86 -158 -7 -8 -9 -15 -5 -15 5 0 1 -8 -8 -17 -8 -10
-16 -22 -17 -28 -3 -11 -13 -38 -32 -82 -6 -16 -11 -31 -10 -35 1 -5 -3 -8 -8
-8 -6 0 -10 -6 -10 -13 0 -8 -11 -34 -23 -60 -13 -25 -20 -44 -16 -41 5 3 6
-2 3 -10 -3 -9 -10 -16 -16 -16 -5 0 -6 -5 -3 -10 4 -6 1 -17 -5 -25 -6 -8 -9
-19 -5 -25 3 -5 1 -10 -6 -10 -7 0 -9 -3 -6 -6 4 -4 -2 -19 -13 -34 -11 -16
-20 -34 -20 -42 0 -8 -11 -42 -24 -76 -14 -34 -23 -62 -21 -62 2 0 -3 -20 -10
-44 -8 -24 -11 -47 -8 -50 4 -3 0 -6 -7 -6 -7 0 -11 -3 -7 -6 3 -4 0 -22 -8
-40 -8 -19 -14 -37 -14 -39 1 -5 -6 -38 -17 -85 -3 -14 -7 -37 -8 -52 0 -16
-4 -28 -7 -28 -4 0 -6 -18 -5 -40 0 -22 -2 -40 -5 -40 -4 0 -7 -15 -7 -32 -1
-18 -4 -53 -7 -78 -3 -25 -7 -88 -9 -140 -3 -52 -6 -95 -7 -95 -8 0 -4 -52 5
-57 8 -6 8 -8 0 -8 -11 0 -13 -37 -13 -265 0 -106 4 -170 9 -170 4 0 9 -63 10
-118 1 -33 5 -55 10 -52 6 4 6 -4 0 -19 -5 -14 -6 -26 -1 -26 4 0 9 -15 10
-32 3 -55 9 -103 11 -103 2 0 3 -6 13 -70 2 -16 17 -79 32 -140 15 -60 28
-116 28 -122 0 -7 4 -13 8 -13 4 0 10 -17 13 -37 12 -77 15 -90 30 -118 8 -16
13 -32 10 -37 -3 -4 -1 -8 4 -8 5 0 9 -7 9 -15 0 -24 47 -155 56 -155 4 0 6
-4 2 -9 -3 -5 -1 -12 5 -16 5 -3 10 -15 10 -25 0 -10 7 -26 16 -35 9 -9 14
-19 10 -22 -3 -4 1 -17 9 -30 9 -13 13 -23 9 -23 -4 0 -1 -7 6 -15 7 -8 9 -15
4 -15 -5 0 -4 -4 1 -8 13 -9 80 -144 77 -154 -1 -5 3 -8 8 -8 6 0 10 -7 10
-15 0 -8 4 -15 9 -15 5 0 12 -11 15 -25 4 -16 11 -23 18 -19 6 4 8 3 4 -4 -3
-6 4 -21 16 -33 13 -12 16 -19 8 -15 -8 4 -4 -2 10 -14 14 -12 20 -19 13 -15
-7 3 -3 -12 9 -35 12 -22 25 -40 30 -40 4 0 8 -7 8 -15 0 -8 5 -15 11 -15 5 0
8 -4 5 -8 -3 -5 6 -20 20 -35 13 -14 24 -29 24 -32 0 -3 9 -15 20 -27 11 -12
20 -28 20 -35 0 -7 5 -13 10 -13 6 0 10 -6 10 -13 0 -7 9 -19 20 -27 11 -8 20
-19 20 -25 0 -6 9 -17 20 -25 11 -8 20 -18 20 -22 0 -9 26 -41 54 -69 11 -11
17 -19 13 -19 -4 0 7 -13 23 -29 17 -15 30 -33 30 -40 0 -6 4 -11 9 -11 13 0
79 -68 73 -75 -3 -3 3 -5 13 -5 10 0 15 -3 12 -6 -3 -4 8 -20 26 -37 18 -16
31 -34 30 -39 -2 -4 3 -8 10 -8 7 0 26 -16 42 -35 17 -19 36 -35 43 -35 7 0
10 -4 7 -10 -3 -5 -2 -10 3 -10 4 0 21 -12 38 -28 16 -15 46 -40 66 -55 21
-16 55 -44 75 -62 21 -19 44 -35 51 -35 6 0 12 -4 12 -8 0 -10 53 -50 71 -54
6 -2 22 -12 34 -23 34 -29 49 -40 65 -43 7 -2 31 -17 52 -33 21 -17 38 -28 38
-24 0 3 8 -1 17 -10 9 -10 29 -22 45 -27 15 -6 28 -14 28 -20 0 -5 5 -6 10 -3
6 3 10 1 10 -4 0 -6 9 -11 20 -11 11 0 20 -4 20 -10 0 -5 7 -10 14 -10 8 0 27
-11 42 -25 14 -13 30 -23 34 -20 4 3 20 -5 36 -17 15 -13 24 -17 20 -10 -7 11
-4 11 15 0 13 -7 27 -17 31 -23 4 -5 10 -6 14 -3 3 4 13 0 21 -8 8 -8 19 -12
24 -8 5 3 12 -2 15 -11 5 -12 10 -13 20 -4 11 9 15 8 20 -4 5 -14 49 -33 67
-29 4 1 7 -3 7 -9 0 -6 7 -9 15 -5 8 3 20 -1 27 -7 16 -16 46 -29 78 -34 14
-2 34 -7 45 -12 37 -17 60 -24 68 -22 5 1 23 -5 40 -13 62 -27 232 -68 241
-58 3 3 6 0 6 -7 0 -7 6 -11 14 -8 8 3 17 3 21 -1 6 -6 49 -12 108 -16 15 0
27 -4 27 -8 0 -3 28 -9 63 -14 34 -4 71 -9 82 -11 11 -1 44 -4 72 -6 29 -2 55
-6 57 -8 7 -6 417 -1 433 5 7 3 13 1 13 -5 0 -6 5 -7 12 -3 7 5 28 9 48 10 19
1 37 3 40 4 3 1 10 1 15 0 29 -7 55 -7 55 0 0 4 14 6 30 5 17 -1 32 0 34 4 3
4 22 8 43 10 70 6 98 9 98 11 0 1 20 4 45 6 56 5 72 8 87 17 6 4 15 2 19 -4 5
-8 8 -8 13 0 7 11 34 20 81 25 14 2 52 12 85 22 33 10 64 17 69 16 4 -2 13 1
20 6 16 12 129 47 144 44 6 -2 12 2 12 8 0 6 4 9 9 5 5 -3 12 -1 16 5 4 6 11
7 17 4 7 -4 8 -2 4 4 -6 11 0 14 20 11 4 0 11 5 15 13 7 10 9 10 9 -2 0 -13 1
-13 10 0 5 8 13 15 17 15 4 1 19 7 33 15 14 7 25 12 25 11 0 -7 148 50 165 64
8 7 27 15 43 19 15 3 27 11 27 17 0 6 5 7 10 4 6 -3 10 -2 10 3 0 6 11 13 25
16 14 4 25 11 25 16 0 5 16 12 35 16 19 3 35 10 35 15 0 4 18 19 40 32 22 13
38 27 35 30 -3 4 -2 5 2 2 3 -3 12 0 20 6 7 6 13 8 13 4 0 -5 9 2 19 14 11 12
22 22 26 21 3 -1 17 6 30 16 12 9 27 17 31 18 5 0 22 12 38 26 16 14 33 24 38
22 5 -1 7 2 3 8 -3 5 -2 10 2 10 5 0 21 11 36 25 15 14 27 23 27 19 0 -4 16 9
35 29 19 20 35 33 35 29 0 -4 4 -2 8 4 4 6 23 21 42 33 19 11 31 21 27 21 -4
0 8 13 26 30 19 16 37 30 40 30 3 0 65 59 136 130 72 72 128 130 124 130 -3 0
4 9 17 20 13 11 19 20 14 20 -5 0 6 14 24 30 18 17 30 30 26 30 -4 0 5 11 20
25 15 14 24 25 21 25 -3 0 12 19 34 42 22 22 38 45 35 50 -3 4 -1 8 4 8 12 0
78 101 75 112 -2 5 2 8 7 8 6 0 10 7 10 15 0 8 4 15 9 15 5 0 25 25 44 55 19
30 37 52 41 50 3 -3 4 -2 1 1 -2 4 4 19 15 34 11 16 20 33 20 39 0 6 5 11 10
11 6 0 10 7 10 15 0 8 5 15 12 15 6 0 8 3 5 7 -4 3 -3 11 2 17 11 13 111 211
111 219 0 3 14 36 31 73 17 37 32 72 34 78 3 14 23 65 35 91 6 11 11 29 13 40
1 11 6 26 10 33 5 6 6 12 3 12 -3 0 -1 12 5 28 6 15 13 41 16 57 3 17 8 32 11
35 4 3 8 14 10 25 2 11 6 27 9 35 7 17 12 37 17 65 2 11 6 27 9 35 4 8 9 26
11 40 8 41 17 83 32 143 1 4 2 8 4 10 1 1 3 11 5 22 2 11 7 36 11 55 4 19 8
44 9 55 1 11 4 31 8 45 4 14 9 48 12 75 2 28 7 59 9 70 25 122 25 720 1 847
-3 12 -7 43 -10 68 -7 68 -15 116 -35 225 -5 28 -23 102 -40 165 -17 63 -32
122 -34 130 -3 8 -24 72 -49 142 -25 70 -42 129 -39 132 3 3 1 6 -5 6 -6 0
-13 10 -16 23 -7 33 -51 131 -60 135 -4 2 -5 8 -1 13 3 5 0 9 -6 9 -6 0 -9 4
-6 9 3 5 -1 14 -10 21 -8 7 -13 19 -10 26 3 7 2 14 -2 16 -9 3 -65 107 -83
151 -6 15 -15 27 -20 27 -5 0 -9 5 -9 11 0 11 -67 128 -79 139 -4 3 -20 25
-36 50 -17 25 -38 54 -47 64 -10 11 -18 26 -18 33 0 7 -4 13 -9 13 -5 0 -12 8
-15 18 -3 9 -16 28 -29 42 -12 14 -34 41 -47 60 -13 19 -29 40 -35 46 -5 7
-26 31 -44 54 -19 23 -41 48 -48 56 -7 7 -13 18 -13 25 0 7 -2 10 -5 7 -3 -3
-40 31 -83 76 -42 44 -80 82 -83 84 -4 2 -29 24 -57 50 -70 66 -151 135 -170
146 -10 5 -21 15 -25 23 -4 7 -15 13 -23 13 -8 0 -12 5 -9 10 3 6 -1 10 -9 10
-9 0 -16 5 -16 10 0 6 -7 10 -15 10 -8 0 -15 5 -15 10 0 6 -5 10 -10 10 -6 0
-23 11 -38 25 -15 14 -43 36 -62 47 -19 12 -37 25 -40 28 -3 3 -30 21 -60 40
-30 19 -58 39 -62 45 -4 5 -8 7 -8 3 0 -3 -37 16 -82 43 -91 55 -299 159 -317
159 -6 0 -11 4 -11 10 0 5 -3 9 -7 8 -5 -2 -59 19 -120 45 -62 26 -120 49
-130 51 -10 1 -26 6 -35 9 -25 10 -47 16 -53 17 -3 0 -21 6 -40 14 -19 8 -35
13 -35 11 0 -3 -12 0 -27 7 -16 6 -44 14 -63 18 -19 5 -46 11 -60 14 -82 19
-211 46 -245 51 -22 4 -49 9 -60 11 -86 15 -233 24 -421 24 -121 0 -223 -2
-225 -4z"/>
</g>
</svg>
